<svg xmlns="http://www.w3.org/2000/svg" width="300" height="300" viewBox="0 0 300 300">
  <defs>
    <style>
      .cls-1 {
        fill: #006097;
      }
    </style>
  </defs>
  <path id="analytics_FILL0_wght400_GRAD0_opsz48" class="cls-1" d="M74.333,240.583h25V155.167h-25Zm138.333,0h25v-175h-25Zm-69.167,0h25V191.417h-25Zm0-85.417h25v-25h-25ZM31,306a23.984,23.984,0,0,1-17.5-7.5A23.984,23.984,0,0,1,6,281V31a23.985,23.985,0,0,1,7.5-17.5A23.985,23.985,0,0,1,31,6H281a23.984,23.984,0,0,1,17.5,7.5A23.984,23.984,0,0,1,306,31V281a25.633,25.633,0,0,1-25,25Zm0-25H281V31H31ZM31,31v0Z" transform="translate(-6 -6)"/>
</svg>
