<svg xmlns="http://www.w3.org/2000/svg" width="300" height="300" viewBox="0 0 300 300">
  <defs>
    <style>
      .cls-1 {
        fill: #5eb48f;
      }
    </style>
  </defs>
  <path id="assignment_FILL0_wght400_GRAD0_opsz48" class="cls-1" d="M31,302a25.531,25.531,0,0,1-17.708-6.562A20.66,20.66,0,0,1,6,279.5V54.5a20.66,20.66,0,0,1,7.292-15.937A25.531,25.531,0,0,1,31,32h85.417Q118.5,18.875,129.75,10.438A42.542,42.542,0,0,1,156,2a42.542,42.542,0,0,1,26.25,8.438Q193.5,18.875,195.583,32H281a25.531,25.531,0,0,1,17.708,6.563A20.66,20.66,0,0,1,306,54.5v225a20.66,20.66,0,0,1-7.292,15.938A25.531,25.531,0,0,1,281,302Zm0-22.5H281V54.5H31ZM72.667,242h113.75V219.5H72.667Zm0-63.75H239.333v-22.5H72.667Zm0-63.75H239.333V92H72.667ZM156,48.125a14.781,14.781,0,0,0,10.208-3.937,11.834,11.834,0,0,0,0-18.375,15.2,15.2,0,0,0-20.417,0,11.834,11.834,0,0,0,0,18.375A14.781,14.781,0,0,0,156,48.125ZM31,279.5v0Z" transform="translate(-6 -2)"/>
</svg>
